<svg width="64" height="32" viewBox="0 0 94 62" fill="none" xmlns="http://www.w3.org/2000/svg">
<path d="M0 17.9517C0 9.66739 6.71573 2.95168 15 2.95168H62C63.6569 2.95168 65 4.29482 65 5.95168V55.0495C65 56.7064 63.6569 58.0495 62 58.0495H15C6.71573 58.0495 0 51.3338 0 43.0495V17.9517Z" fill="#4D9FFF"/>
<path d="M57.2561 4.9094C60.0119 2.19801 64.4799 2.19801 67.2357 4.90939L87.3722 24.7215C90.5216 27.8202 90.5216 32.8442 87.3722 35.9429L66.8186 56.1654C64.0629 58.8767 59.5949 58.8768 56.8391 56.1654L36.7026 36.3533C33.5532 33.2546 33.5531 28.2305 36.7026 25.1318L57.2561 4.9094Z" fill="#4D9FFF"/>
<rect x="21.5003" y="24.5246" width="25.4346" height="7.77867" transform="rotate(45 21.5003 24.5246)" fill="white"/>
<rect x="62.0518" y="19.9503" width="39.7087" height="8.41498" transform="rotate(135 62.0518 19.9503)" fill="white"/>
</svg>